<svg width="40" height="26" viewBox="0 0 40 26" fill="none" xmlns="http://www.w3.org/2000/svg">
<path d="M36.4844 2.36364C34.9688 2.36364 33.6741 3.33596 33.1814 4.6945C30.1647 4.48524 28.1297 3.30688 26.1557 2.16367C24.2343 1.05095 22.4196 0 20 0C17.5805 0 15.7657 1.05095 13.8444 2.16367C11.8703 3.30688 9.83533 4.48532 6.81869 4.6945C6.32595 3.33596 5.03126 2.36364 3.51563 2.36364C1.57711 2.36364 0 3.95413 0 5.90909V8.27273L7.81252e-05 8.27446C0.000234375 8.43022 0.0329688 8.59379 0.0958596 8.74057L0.0966408 8.74262C1.04563 10.9507 3.03524 14.4247 5.27212 17.2783C7.23126 19.7778 9.3151 21.7759 11.4657 23.2172C14.2208 25.0638 17.0922 26 20 26C22.9079 26 25.7793 25.0638 28.5344 23.2172C30.685 21.7759 32.7688 19.7777 34.728 17.2783C36.9209 14.4807 38.926 11.017 39.9034 8.74262C39.9064 8.73277 39.9996 8.53746 39.9999 8.27501L40 8.27273V5.90909C40.0001 3.95413 38.423 2.36364 36.4844 2.36364ZM4.68751 12.3315C3.41251 10.2776 2.60868 8.5956 2.34375 8.01769V5.90909C2.34375 5.25744 2.86946 4.72727 3.51563 4.72727C4.16181 4.72727 4.68751 5.25744 4.68751 5.90909V12.3315ZM32.9688 15.7105C29.7384 19.8639 25.2544 23.6364 20 23.6364C14.7449 23.6364 10.2604 19.8623 7.03126 15.7105V7.04955C10.5506 6.79679 12.9078 5.43172 15.0115 4.21342C16.7254 3.22085 18.2056 2.36364 20 2.36364C21.7945 2.36364 23.2747 3.22085 24.9886 4.21342C27.0923 5.43172 29.4496 6.79687 32.9688 7.04955V15.7105ZM37.6563 8.01769C37.3914 8.59552 36.5876 10.2776 35.3126 12.3315V5.90909C35.3126 5.25744 35.8383 4.72727 36.4844 4.72727C37.1306 4.72727 37.6563 5.25744 37.6563 5.90909V8.01769Z" fill="#92CEF0"/>
<path fill-rule="evenodd" clip-rule="evenodd" d="M20 22C24.4567 22 28.26 18.8079 31 15.2935V7.965C28.015 7.7512 26.0156 6.59607 24.2312 5.5652C22.7775 4.72533 21.5221 4 20 4C18.4779 4 17.2225 4.72533 15.7688 5.5652C13.9845 6.59607 11.985 7.75114 9 7.965V15.2935C11.7389 18.8066 15.5426 22 20 22ZM21.1719 11.8182H22.3438C22.991 11.8182 23.5156 12.3473 23.5156 13C23.5156 13.6527 22.991 14.1818 22.3438 14.1818H21.1719V15.3636C21.1719 16.0163 20.6472 16.5455 20 16.5455C19.3528 16.5455 18.8281 16.0163 18.8281 15.3636V14.1818H17.6562C17.009 14.1818 16.4844 13.6527 16.4844 13C16.4844 12.3473 17.009 11.8182 17.6562 11.8182H18.8281V10.6364C18.8281 9.98369 19.3528 9.45455 20 9.45455C20.6472 9.45455 21.1719 9.98369 21.1719 10.6364V11.8182Z" fill="#92CEF0"/>
</svg>