<svg width="292" height="2444" viewBox="0 0 292 2444" fill="none" xmlns="http://www.w3.org/2000/svg">
<path opacity="0.64" d="M131.856 2150.24C153.432 2149.28 174.049 2151.68 193.228 2156.95C212.407 2162.7 229.668 2171.81 244.532 2183.79C259.396 2195.77 270.903 2211.58 279.534 2229.79C287.685 2248 292 2269.09 292 2292.57C292 2321.8 285.767 2348.16 273.301 2370.68C261.314 2393.2 244.053 2411.41 221.997 2424.35C199.941 2437.29 174.049 2444 144.801 2444C123.225 2444 103.087 2440.17 85.3465 2432.5C67.6059 2424.83 52.2627 2413.81 39.3169 2399.91C26.8506 2386.01 16.7816 2369.72 10.069 2351.03C3.35632 2332.34 -5.76047e-06 2312.22 -6.72405e-06 2290.17C-8.00182e-06 2260.94 6.23317 2236.02 18.6995 2215.41C30.6864 2195.29 46.9885 2178.04 66.1675 2165.1L70.4828 2162.22L104.525 2228.35L100.69 2230.75C90.6207 2236.5 81.9902 2244.17 75.757 2253.75C69.5238 2263.34 66.1675 2275.32 66.1675 2290.17C66.1675 2304.07 69.5238 2317.01 75.757 2328.51C81.9902 2340.01 91.1002 2349.12 102.608 2356.3C114.115 2363.01 128.979 2366.37 145.281 2366.37C162.062 2366.37 176.926 2363.01 188.913 2356.3C200.9 2349.59 210.489 2340.49 217.202 2329.47C223.915 2317.97 227.271 2305.03 227.271 2289.69C227.271 2271 222.956 2256.63 214.325 2246.08C207.133 2236.98 198.023 2230.27 187.954 2225.96L187.954 2295.44L127.54 2295.44L127.54 2150.24L131.856 2150.24ZM109.32 1901.05C123.225 1895.3 148.637 1892.42 165.419 1892.42C182.2 1892.42 207.613 1895.3 221.997 1901.05C235.902 1906.8 248.368 1914.95 258.916 1925.49C269.465 1936.03 277.616 1948.49 283.37 1963.35C289.123 1977.72 292 1994.02 292 2010.79C292 2028.04 289.123 2043.85 283.37 2058.23C277.616 2072.61 269.465 2085.55 258.916 2096.09C248.368 2106.63 235.902 2115.26 221.997 2121.01C208.092 2126.76 182.68 2129.63 165.419 2129.63C148.158 2129.63 123.225 2126.76 109.32 2120.53C95.4155 2114.78 83.4286 2106.15 73.3596 2095.13C63.2907 2084.11 55.6191 2071.65 49.8654 2057.27C44.5911 2042.9 41.7143 2027.56 41.7143 2010.79C41.7143 1994.02 44.5911 1978.2 49.8654 1963.83C55.1396 1949.45 63.2907 1936.51 73.3596 1925.97C83.4286 1915.43 95.4155 1906.8 109.32 1901.05ZM213.366 1975.81C203.777 1967.18 181.241 1962.87 165.898 1962.87C150.555 1962.87 128.02 1967.18 118.43 1975.33C108.841 1983.47 104.046 1995.45 104.046 2010.79C104.046 2025.64 108.841 2037.15 118.43 2045.77C128.02 2054.4 150.076 2058.71 165.898 2058.71C181.721 2058.71 203.777 2054.4 213.366 2045.77C222.956 2037.15 227.751 2025.64 227.751 2010.79C227.271 1995.93 222.956 1984.43 213.366 1975.81ZM109.32 1649.46C123.225 1643.71 148.637 1640.83 165.419 1640.83C182.2 1640.83 207.613 1643.71 221.997 1649.46C235.902 1655.21 248.368 1663.36 258.916 1673.9C269.465 1684.44 277.616 1696.9 283.37 1711.76C289.123 1726.13 292 1742.43 292 1759.2C292 1776.45 289.123 1792.27 283.37 1806.64C277.616 1821.02 269.465 1833.96 258.916 1844.5C248.368 1855.04 235.902 1863.67 221.997 1869.42C208.092 1875.17 182.68 1878.05 165.419 1878.05C148.158 1878.05 123.225 1875.17 109.32 1868.94C95.4155 1863.19 83.4286 1854.56 73.3596 1843.54C63.2906 1832.52 55.6191 1820.06 49.8654 1805.68C44.5911 1791.31 41.7143 1775.97 41.7143 1759.2C41.7143 1742.43 44.5911 1726.61 49.8653 1712.24C55.1396 1697.86 63.2906 1684.92 73.3596 1674.38C83.4286 1663.84 95.4154 1655.69 109.32 1649.46ZM213.366 1724.22C203.777 1715.59 181.241 1711.28 165.898 1711.28C150.555 1711.28 128.02 1715.59 118.43 1723.74C108.841 1731.89 104.046 1743.87 104.046 1759.2C104.046 1774.06 108.841 1785.56 118.43 1794.18C128.02 1802.81 150.076 1807.12 165.898 1807.12C181.721 1807.12 203.777 1802.81 213.366 1794.18C222.956 1785.56 227.75 1774.06 227.75 1759.2C227.271 1744.35 222.956 1732.84 213.366 1724.22ZM97.8128 1428.06C114.115 1418.48 142.883 1413.69 165.419 1413.69C187.954 1413.69 216.723 1418.48 233.025 1428.06C249.327 1437.65 261.793 1451.54 270.903 1469.28C279.534 1487.01 283.849 1508.09 283.849 1532.05L283.849 1614.96L46.9885 1614.96L46.9885 1532.53C46.9885 1508.09 51.3038 1487.01 59.9343 1469.75C69.0443 1451.54 81.9901 1437.65 97.8128 1428.06ZM165.419 1483.17C151.993 1483.17 132.335 1485.57 125.143 1490.36C117.951 1495.15 113.635 1501.38 110.759 1509.05C107.882 1517.2 106.923 1525.34 106.923 1534.45L106.923 1545.47L223.435 1545.47L223.435 1534.45C223.435 1525.82 221.997 1517.2 219.599 1509.05C217.202 1501.38 212.407 1495.15 205.215 1490.36C198.982 1485.57 178.844 1483.17 165.419 1483.17ZM180.282 1209.06L284.328 1137.66L284.328 1225.35L191.31 1282.86L191.31 1295.32L284.328 1295.32L284.328 1369.6L6.23313 1369.6L6.23312 1267.05C6.23312 1231.58 14.8637 1204.27 31.6453 1186.06C48.9064 1167.37 71.4417 1158.26 98.7717 1158.26C117.951 1158.26 135.212 1163.06 149.596 1172.64C162.542 1180.79 173.09 1193.25 180.282 1209.06ZM130.897 1294.84L130.897 1271.36C130.897 1259.38 128.02 1250.27 122.745 1243.56C117.471 1237.33 110.279 1233.98 100.69 1233.98C90.6207 1233.98 83.4286 1236.86 78.1543 1243.56C72.8801 1250.27 70.0033 1259.38 70.0033 1271.36L70.0033 1294.84L130.897 1294.84ZM283.849 1122.32L283.849 968.495L227.75 968.495L227.75 1057.15L188.913 1057.15L188.913 974.245L134.253 974.245L134.253 1057.15L103.566 1057.15L103.566 968.495L46.9885 968.495L46.9885 1122.32L283.849 1122.32ZM153.432 814.187L46.9885 894.217L46.9885 945.013L283.849 945.013L283.849 874.089L163.021 874.089L248.847 813.708L162.542 753.327L283.37 753.327L283.37 682.403L46.9885 682.403L46.9885 733.2L153.432 814.187ZM109.32 440.399C123.225 434.649 148.637 431.773 165.419 431.773C182.2 431.773 207.612 434.649 221.997 440.399C235.902 446.15 248.368 454.297 258.916 464.839C269.465 475.382 277.616 487.842 283.37 502.697C289.123 517.074 292 533.367 292 550.14C292 567.391 289.123 583.206 283.37 597.582C277.616 611.959 269.465 624.897 258.916 635.44C248.368 645.983 235.902 654.609 221.997 660.359C208.092 666.11 182.68 668.985 165.419 668.985C148.158 668.985 123.225 666.11 109.32 659.88C95.4154 654.13 83.4285 645.504 73.3596 634.482C63.2906 623.46 55.619 611 49.8653 596.624C44.5911 582.247 41.7142 566.912 41.7142 550.14C41.7142 533.367 44.5911 517.553 49.8653 503.177C55.1395 488.8 63.2906 475.861 73.3596 465.319C83.4285 454.776 95.4154 446.15 109.32 440.399ZM213.366 515.157C203.777 506.531 181.241 502.218 165.898 502.218C150.555 502.218 128.02 506.531 118.43 514.678C108.841 522.824 104.046 534.805 104.046 550.14C104.046 564.995 108.841 576.497 118.43 585.122C128.02 593.748 150.076 598.061 165.898 598.061C181.721 598.061 203.777 593.748 213.366 585.122C222.956 576.497 227.75 564.995 227.75 550.14C227.271 535.284 222.956 523.783 213.366 515.157ZM147.678 265.965L85.3464 340.243L46.9884 340.243L46.9884 404.937L283.849 404.937L283.849 340.243L164.46 340.243L226.791 265.965L284.328 265.965L284.328 201.271L46.9884 201.271L46.9884 265.965L147.678 265.965ZM46.9884 184.019L107.882 184.019L107.882 125.555L283.849 125.555L283.849 58.4644L108.361 58.4645L108.361 8.01404e-05L46.9884 8.28231e-05L46.9884 184.019Z" fill="white"/>
</svg>