<svg width="12" height="12" viewBox="0 0 12 12" fill="none" xmlns="http://www.w3.org/2000/svg">
<path fill-rule="evenodd" clip-rule="evenodd" d="M7.66667 4.33334H10.3333C11.2538 4.33334 12 5.07956 12 6C12 6.92044 11.2538 7.66666 10.3333 7.66666H7.66667V10.3333C7.66667 11.2538 6.92049 12 6 12C5.07951 12 4.33333 11.2538 4.33333 10.3333V7.66666H1.66667C0.746181 7.66666 0 6.92044 0 6C0 5.07956 0.746181 4.33334 1.66667 4.33334H4.33333V1.66666C4.33333 0.746218 5.07951 0 6 0C6.92049 0 7.66667 0.746218 7.66667 1.66666V4.33334Z" fill="#FC8332"/>
</svg>