<svg width="90" height="14" viewBox="0 0 90 14" fill="none" xmlns="http://www.w3.org/2000/svg">
<path d="M89.9636 5.29027C89.8718 4.99438 89.6205 4.78426 89.323 4.75653L85.2823 4.37373L83.6845 0.471136C83.5667 0.185252 83.2982 0 83.0001 0C82.7021 0 82.4338 0.185252 82.3158 0.471708L80.718 4.37345L76.6767 4.75653C76.3797 4.78512 76.129 4.99467 76.0367 5.29027C75.9444 5.58588 76.0296 5.91064 76.2542 6.11505L79.3084 8.91013L78.4082 13.0503C78.3421 13.3548 78.4556 13.6692 78.6975 13.8519C78.8276 13.95 78.9797 14 79.1334 14C79.2657 14 79.3969 13.9628 79.5147 13.8891L83.0001 11.7152L86.4844 13.8891C86.7395 14.0492 87.0609 14.0346 87.3022 13.8519C87.5444 13.6687 87.6576 13.3539 87.5915 13.0503L86.691 8.91042L89.7452 6.11591C89.9699 5.91064 90.0556 5.58674 89.9636 5.29027Z" fill="#FC8332"/>
<path d="M70.9636 5.29027C70.8718 4.99438 70.6205 4.78426 70.323 4.75653L66.2823 4.37373L64.6845 0.471136C64.5667 0.185252 64.2982 0 64.0001 0C63.7021 0 63.4338 0.185252 63.3158 0.471708L61.718 4.37345L57.6767 4.75653C57.3797 4.78512 57.129 4.99467 57.0367 5.29027C56.9444 5.58588 57.0296 5.91064 57.2542 6.11505L60.3084 8.91013L59.4082 13.0503C59.3421 13.3548 59.4556 13.6692 59.6975 13.8519C59.8276 13.95 59.9797 14 60.1334 14C60.2657 14 60.3969 13.9628 60.5147 13.8891L64.0001 11.7152L67.4844 13.8891C67.7395 14.0492 68.0609 14.0346 68.3022 13.8519C68.5444 13.6687 68.6576 13.3539 68.5915 13.0503L67.691 8.91042L70.7452 6.11591C70.9699 5.91064 71.0556 5.58674 70.9636 5.29027Z" fill="#FC8332"/>
<path d="M51.9636 5.29027C51.8718 4.99438 51.6205 4.78426 51.323 4.75653L47.2823 4.37373L45.6845 0.471136C45.5667 0.185252 45.2982 0 45.0001 0C44.7021 0 44.4338 0.185252 44.3158 0.471708L42.718 4.37345L38.6767 4.75653C38.3797 4.78512 38.129 4.99467 38.0367 5.29027C37.9444 5.58588 38.0296 5.91064 38.2542 6.11505L41.3084 8.91013L40.4082 13.0503C40.3421 13.3548 40.4556 13.6692 40.6975 13.8519C40.8276 13.95 40.9797 14 41.1334 14C41.2657 14 41.3969 13.9628 41.5147 13.8891L45.0001 11.7152L48.4844 13.8891C48.7395 14.0492 49.0609 14.0346 49.3022 13.8519C49.5444 13.6687 49.6576 13.3539 49.5915 13.0503L48.691 8.91042L51.7452 6.11591C51.9699 5.91064 52.0556 5.58674 51.9636 5.29027Z" fill="#FC8332"/>
<path d="M32.9636 5.29027C32.8718 4.99438 32.6205 4.78426 32.323 4.75653L28.2823 4.37373L26.6845 0.471136C26.5667 0.185252 26.2982 0 26.0001 0C25.7021 0 25.4338 0.185252 25.3158 0.471708L23.718 4.37345L19.6767 4.75653C19.3797 4.78512 19.129 4.99467 19.0367 5.29027C18.9444 5.58588 19.0296 5.91064 19.2542 6.11505L22.3084 8.91013L21.4082 13.0503C21.3421 13.3548 21.4556 13.6692 21.6975 13.8519C21.8276 13.95 21.9797 14 22.1334 14C22.2657 14 22.3969 13.9628 22.5147 13.8891L26.0001 11.7152L29.4844 13.8891C29.7395 14.0492 30.0609 14.0346 30.3022 13.8519C30.5444 13.6687 30.6576 13.3539 30.5915 13.0503L29.691 8.91042L32.7452 6.11591C32.9699 5.91064 33.0556 5.58674 32.9636 5.29027Z" fill="#FC8332"/>
<path d="M13.9636 5.29027C13.8718 4.99438 13.6205 4.78426 13.323 4.75653L9.28228 4.37373L7.6845 0.471136C7.5667 0.185252 7.29821 0 7.00013 0C6.70205 0 6.43384 0.185252 6.31576 0.471708L4.71799 4.37345L0.676698 4.75653C0.379718 4.78512 0.129038 4.99467 0.036711 5.29027C-0.0556159 5.58588 0.0295879 5.91064 0.254241 6.11505L3.30843 8.91013L2.40817 13.0503C2.34214 13.3548 2.45557 13.6692 2.69748 13.8519C2.82761 13.95 2.97966 14 3.13336 14C3.26569 14 3.39692 13.9628 3.51472 13.8891L7.00013 11.7152L10.4844 13.8891C10.7395 14.0492 11.0609 14.0346 11.3022 13.8519C11.5444 13.6687 11.6576 13.3539 11.5915 13.0503L10.691 8.91042L13.7452 6.11591C13.9699 5.91064 14.0556 5.58674 13.9636 5.29027Z" fill="#FC8332"/>
</svg>