<svg width="24" height="24" viewBox="0 0 24 24" fill="none" xmlns="http://www.w3.org/2000/svg">
<path d="M9.43437 2.50733C9.31978 5.64068 8.96185 7.47603 7.20488 10.1856C6.90593 9.88433 6.50203 9.69454 6.06003 9.69454H1.65274C0.751416 9.69454 0 10.4739 0 11.4088V21.6941C0 22.6289 0.751416 23.4083 1.65274 23.4083H6.06003C6.52368 23.4083 6.94551 23.2001 7.24794 22.8726C7.4634 23.0497 7.66418 23.2124 7.89352 23.3547C8.381 23.6572 8.94935 23.8392 9.67539 23.9172C11.1275 24.0731 13.4147 23.9566 18.731 23.9797C18.9208 23.9797 19.1098 23.9086 19.2561 23.7833C20.3079 22.8933 20.8246 21.9779 21.0638 21.0066C21.1557 20.9548 21.2379 20.8847 21.3048 20.8012C22.1024 19.7673 22.4241 18.5737 22.2861 17.4978C22.3303 17.4606 22.3707 17.4186 22.4066 17.3728C23.3316 16.1736 23.6248 14.7549 23.2933 13.5604C23.8357 12.8302 24.07 11.9729 23.9819 11.1766C23.8738 10.2001 23.2714 9.32021 22.3636 8.90886C22.2607 8.86235 22.1487 8.83789 22.0365 8.83743H15.2534C15.6163 6.02613 15.3393 3.44866 14.384 1.7038C13.8427 0.71521 13.0166 0.135606 12.1889 0.00744053C10.5831 -0.106526 9.51084 1.10525 9.43437 2.50733ZM11.836 1.69489C12.263 1.69089 12.7396 2.08624 12.9464 2.55199C13.6991 3.92667 14.0512 6.6307 13.5146 9.53383C13.4239 10.0267 13.84 10.5501 14.3237 10.5517H21.7955C22.1042 10.7307 22.297 11.0049 22.3377 11.3731C22.3759 11.7182 22.2322 12.1344 21.8988 12.5516H19.5573C19.1207 12.5516 18.7223 12.9558 18.7223 13.4087C18.7223 13.8615 19.1207 14.2722 19.5573 14.2658H21.7438C21.8066 14.7508 21.6911 15.3608 21.3134 15.98H19.0064C18.5698 15.98 18.1714 16.3842 18.1714 16.8371C18.1714 17.29 18.5698 17.7006 19.0064 17.6942H20.642C20.7048 18.1792 20.5893 18.7893 20.2116 19.4084H18.4468C18.0103 19.4084 17.6119 19.8127 17.6119 20.2655C17.6119 20.7184 18.0103 21.1291 18.4468 21.1227H19.2905C19.1212 21.5007 18.8525 21.8355 18.3781 22.2655C13.3625 22.2495 10.9719 22.3336 9.83893 22.2119C9.25527 22.1492 9.02496 22.0602 8.73711 21.8815C8.49749 21.7328 8.16669 21.4485 7.71277 21.0691V12.3819C10.2978 8.79746 10.9498 6.29046 11.0871 2.5877C11.2001 1.94199 11.5039 1.69803 11.836 1.69489ZM1.65274 11.4088H6.06003C6.0413 14.814 6.06003 18.2621 6.06003 21.6941H1.65274V11.4088ZM3.85638 17.9799C3.24785 17.9799 2.75456 18.4916 2.75456 19.1227C2.75456 19.7539 3.24785 20.2655 3.85638 20.2655C4.46489 20.2655 4.95821 19.7539 4.95821 19.1227C4.95821 18.4916 4.46489 17.9799 3.85638 17.9799Z" fill="#4BB4F5"/>
</svg>