<svg width="24" height="24" viewBox="0 0 24 24" fill="none" xmlns="http://www.w3.org/2000/svg">
<path d="M16.5 19.25H7.5C5.975 19.25 4.75 18.025 4.75 16.5V7.5C4.75 5.975 5.975 4.75 7.5 4.75H16.5C18.025 4.75 19.25 5.975 19.25 7.5V16.5C19.25 18.025 18.025 19.25 16.5 19.25ZM7.5 6.25C6.8 6.25 6.25 6.8 6.25 7.5V16.5C6.25 17.2 6.8 17.75 7.5 17.75H16.5C17.2 17.75 17.75 17.2 17.75 16.5V7.5C17.75 6.8 17.2 6.25 16.5 6.25H7.5Z" fill="#4BB4F5"/>
<path d="M10.5 3.75C10.075 3.75 9.75 3.425 9.75 3V0.75C9.75 0.325 10.075 0 10.5 0C10.925 0 11.25 0.325 11.25 0.75V3C11.25 3.425 10.925 3.75 10.5 3.75Z" fill="#4BB4F5"/>
<path d="M13.5 3.75C13.075 3.75 12.75 3.425 12.75 3V0.75C12.75 0.325 13.075 0 13.5 0C13.925 0 14.25 0.325 14.25 0.75V3C14.25 3.425 13.925 3.75 13.5 3.75Z" fill="#4BB4F5"/>
<path d="M7.5 3.75C7.075 3.75 6.75 3.425 6.75 3V0.75C6.75 0.325 7.075 0 7.5 0C7.925 0 8.25 0.325 8.25 0.75V3C8.25 3.425 7.925 3.75 7.5 3.75Z" fill="#4BB4F5"/>
<path d="M16.5 3.75C16.075 3.75 15.75 3.425 15.75 3V0.75C15.75 0.325 16.075 0 16.5 0C16.925 0 17.25 0.325 17.25 0.75V3C17.25 3.425 16.925 3.75 16.5 3.75Z" fill="#4BB4F5"/>
<path d="M10.5 24C10.075 24 9.75 23.675 9.75 23.25V21C9.75 20.575 10.075 20.25 10.5 20.25C10.925 20.25 11.25 20.575 11.25 21V23.25C11.25 23.675 10.925 24 10.5 24Z" fill="#4BB4F5"/>
<path d="M13.5 24C13.075 24 12.75 23.675 12.75 23.25V21C12.75 20.575 13.075 20.25 13.5 20.25C13.925 20.25 14.25 20.575 14.25 21V23.25C14.25 23.675 13.925 24 13.5 24Z" fill="#4BB4F5"/>
<path d="M7.5 24C7.075 24 6.75 23.675 6.75 23.25V21C6.75 20.575 7.075 20.25 7.5 20.25C7.925 20.25 8.25 20.575 8.25 21V23.25C8.25 23.675 7.925 24 7.5 24Z" fill="#4BB4F5"/>
<path d="M16.5 24C16.075 24 15.75 23.675 15.75 23.25V21C15.75 20.575 16.075 20.25 16.5 20.25C16.925 20.25 17.25 20.575 17.25 21V23.25C17.25 23.675 16.925 24 16.5 24Z" fill="#4BB4F5"/>
<path d="M23.25 11.25H21C20.575 11.25 20.25 10.925 20.25 10.5C20.25 10.075 20.575 9.75 21 9.75H23.25C23.675 9.75 24 10.075 24 10.5C24 10.925 23.675 11.25 23.25 11.25Z" fill="#4BB4F5"/>
<path d="M23.25 14.25H21C20.575 14.25 20.25 13.925 20.25 13.5C20.25 13.075 20.575 12.75 21 12.75H23.25C23.675 12.75 24 13.075 24 13.5C24 13.925 23.675 14.25 23.25 14.25Z" fill="#4BB4F5"/>
<path d="M23.25 8.25H21C20.575 8.25 20.25 7.925 20.25 7.5C20.25 7.075 20.575 6.75 21 6.75H23.25C23.675 6.75 24 7.075 24 7.5C24 7.925 23.675 8.25 23.25 8.25Z" fill="#4BB4F5"/>
<path d="M23.25 17.25H21C20.575 17.25 20.25 16.925 20.25 16.5C20.25 16.075 20.575 15.75 21 15.75H23.25C23.675 15.75 24 16.075 24 16.5C24 16.925 23.675 17.25 23.25 17.25Z" fill="#4BB4F5"/>
<path d="M3 11.25H0.75C0.325 11.25 0 10.925 0 10.5C0 10.075 0.325 9.75 0.75 9.75H3C3.425 9.75 3.75 10.075 3.75 10.5C3.75 10.925 3.425 11.25 3 11.25Z" fill="#4BB4F5"/>
<path d="M3 14.25H0.75C0.325 14.25 0 13.925 0 13.5C0 13.075 0.325 12.75 0.75 12.75H3C3.425 12.75 3.75 13.075 3.75 13.5C3.75 13.925 3.425 14.25 3 14.25Z" fill="#4BB4F5"/>
<path d="M3 8.25H0.75C0.325 8.25 0 7.925 0 7.5C0 7.075 0.325 6.75 0.75 6.75H3C3.425 6.75 3.75 7.075 3.75 7.5C3.75 7.925 3.425 8.25 3 8.25Z" fill="#4BB4F5"/>
<path d="M3 17.25H0.75C0.325 17.25 0 16.925 0 16.5C0 16.075 0.325 15.75 0.75 15.75H3C3.425 15.75 3.75 16.075 3.75 16.5C3.75 16.925 3.425 17.25 3 17.25Z" fill="#4BB4F5"/>
<path d="M12 15.25C10.2 15.25 8.75 13.8 8.75 12C8.75 10.2 10.2 8.75 12 8.75C13.8 8.75 15.25 10.2 15.25 12C15.25 13.8 13.8 15.25 12 15.25ZM12 10.25C11.025 10.25 10.25 11.025 10.25 12C10.25 12.975 11.025 13.75 12 13.75C12.975 13.75 13.75 12.975 13.75 12C13.75 11.025 12.975 10.25 12 10.25Z" fill="#4BB4F5"/>
</svg>