<svg width="24" height="22" viewBox="0 0 24 22" fill="none" xmlns="http://www.w3.org/2000/svg">
<path d="M6.32227 12.1913V10.5628H11.5981C11.6811 10.5628 11.7822 10.5602 11.9015 10.5549C12.026 10.5444 12.1635 10.518 12.3139 10.4759C12.7445 10.3546 13.0558 10.1359 13.2477 9.81971C13.4396 9.49823 13.5356 9.12405 13.5356 8.69717C13.5356 8.43893 13.4967 8.18069 13.4189 7.92245C13.3463 7.65894 13.2192 7.42705 13.0376 7.22679C12.8612 7.02652 12.62 6.88686 12.3139 6.80781C12.1791 6.77092 12.0416 6.74984 11.9015 6.74457C11.7666 6.7393 11.6655 6.73666 11.5981 6.73666H8.66446V4.95007H11.6759C11.7329 4.95007 11.8445 4.95271 12.0105 4.95798C12.1817 4.96325 12.371 4.98169 12.5785 5.01332C13.2218 5.11345 13.7535 5.33216 14.1737 5.66945C14.5991 6.00674 14.9129 6.43363 15.1152 6.9501C15.3227 7.46131 15.4265 8.02522 15.4265 8.64183C15.4265 9.58519 15.1905 10.3652 14.7184 10.9818C14.2463 11.5984 13.533 11.9805 12.5785 12.1281C12.371 12.1544 12.1817 12.1728 12.0105 12.1834C11.8445 12.1887 11.7329 12.1913 11.6759 12.1913H6.32227ZM6.32227 14.7842V13.2901H12.9598V14.7842H6.32227ZM7.435 16.3336V4.95007H9.31032V16.3336H7.435Z" fill="#4BB4F5"/>
<path d="M10.6722 19.0304C5.81659 19.0304 1.87143 15.1699 1.87143 10.4184C1.87143 5.66704 5.81659 1.80652 10.6722 1.80652C15.5025 1.80652 19.4729 5.66704 19.4729 10.4184C19.4729 11.0866 19.3971 11.7053 19.2706 12.324C19.3718 12.2992 19.4729 12.2992 19.5741 12.2992C20.1305 12.2992 20.6363 12.3735 21.142 12.5219C21.2938 11.8538 21.3444 11.1361 21.3444 10.4184C21.3444 4.67717 16.5646 0 10.6975 0C4.77972 0.0247469 0 4.70191 0 10.4432C0 16.1845 4.77972 20.8616 10.6722 20.8616C12.1137 20.8616 13.4793 20.5894 14.7438 20.0697C14.4656 19.5501 14.2633 18.9561 14.1874 18.3127C13.1 18.7829 11.9114 19.0304 10.6722 19.0304Z" fill="#4BB4F5"/>
<path d="M19.5489 13.239C17.0705 13.239 15.0474 15.194 15.0474 17.6192C15.0474 20.0444 17.0452 21.9994 19.5236 21.9994C22.002 21.9994 23.9999 20.0444 23.9999 17.6192C24.0251 15.194 22.0273 13.239 19.5489 13.239ZM21.2939 18.7081C21.4709 18.8813 21.4709 19.1535 21.2939 19.3268C21.218 19.401 21.0916 19.4505 20.9904 19.4505C20.8892 19.4505 20.7628 19.401 20.6869 19.3268L19.5742 18.2379L18.4614 19.3268C18.3856 19.401 18.2591 19.4505 18.158 19.4505C18.0568 19.4505 17.9304 19.401 17.8545 19.3268C17.6775 19.1535 17.6775 18.8813 17.8545 18.7081L18.9672 17.6192L17.8545 16.5304C17.6775 16.3571 17.6775 16.0849 17.8545 15.9117C18.0315 15.7385 18.3097 15.7385 18.4867 15.9117L19.5995 17.0005L20.7122 15.9117C20.8892 15.7385 21.1674 15.7385 21.3445 15.9117C21.5215 16.0849 21.5215 16.3571 21.3445 16.5304L20.2317 17.6192L21.2939 18.7081Z" fill="#4BB4F5"/>
</svg>