<svg width="24" height="24" viewBox="0 0 24 24" fill="none" xmlns="http://www.w3.org/2000/svg">
<path d="M12.0572 0H11.2584V2.9585H12.0572V0Z" fill="#4BB4F5"/>
<path d="M24 11.9277H21.0379V12.7266H24V11.9277Z" fill="#4BB4F5"/>
<path d="M20.1033 3.32795L18.0088 5.41992L18.5744 5.98481L20.6689 3.89284L20.1033 3.32795Z" fill="#4BB4F5"/>
<path d="M18.5727 18.6675L18.0071 19.2324L20.1016 21.3244L20.6672 20.7595L18.5727 18.6675Z" fill="#4BB4F5"/>
<path d="M23.4757 8.75186L20.6145 9.51758L20.8215 10.2892L23.6827 9.52352L23.4757 8.75186Z" fill="#4BB4F5"/>
<path d="M22.1453 5.81763L19.58 7.29688L19.98 7.98872L22.5452 6.50947L22.1453 5.81763Z" fill="#4BB4F5"/>
<path d="M17.4811 1.45037L16.0005 4.01172L16.6925 4.41079L18.1731 1.84944L17.4811 1.45037Z" fill="#4BB4F5"/>
<path d="M19.9817 16.6675L19.5818 17.3594L22.147 18.8386L22.5469 18.1468L19.9817 16.6675Z" fill="#4BB4F5"/>
<path d="M14.4667 0.316374L13.7001 3.17383L14.4718 3.38036L15.2384 0.522902L14.4667 0.316374Z" fill="#4BB4F5"/>
<path d="M20.8213 14.367L20.6143 15.1387L23.4754 15.9044L23.6825 15.1327L20.8213 14.367Z" fill="#4BB4F5"/>
<path fill-rule="evenodd" clip-rule="evenodd" d="M9.77593 12.3273C9.77268 12.6658 9.8618 12.9989 10.0337 13.2906C10.2057 13.5824 10.4539 13.8219 10.7519 13.9834C11.0498 14.145 11.3861 14.2224 11.7248 14.2074C12.0634 14.1924 12.3916 14.0856 12.6741 13.8984L14.831 16.0527L15.3962 15.4961L13.2393 13.3418C13.4066 13.0877 13.509 12.7965 13.5378 12.4938C13.5665 12.191 13.5206 11.8858 13.4042 11.6048C13.2877 11.3238 13.1041 11.0755 12.8695 10.8816C12.6349 10.6878 12.3564 10.5542 12.0582 10.4925V4.92969H11.2583V10.4925C10.839 10.5841 10.4635 10.8158 10.194 11.1494C9.92444 11.4831 9.77696 11.8986 9.77593 12.3273Z" fill="#4BB4F5"/>
<path fill-rule="evenodd" clip-rule="evenodd" d="M7.80298 12.326C7.80279 12.889 7.92623 13.4453 8.16461 13.9555C8.40299 14.4657 8.7505 14.9175 9.18265 15.2791C9.61481 15.6406 10.1211 15.9031 10.6658 16.0481C11.2106 16.193 11.7805 16.2169 12.3355 16.118L12.1968 15.3191C11.4877 15.445 10.7569 15.3167 10.1333 14.9569C9.50969 14.597 9.03341 14.0287 8.78852 13.3522C8.54362 12.6757 8.54585 11.9346 8.79481 11.2596C9.04377 10.5846 9.52345 10.0192 10.1492 9.66306L9.75195 8.9707C9.1596 9.30852 8.66729 9.79686 8.32499 10.3862C7.98269 10.9754 7.80259 11.6447 7.80298 12.326Z" fill="#4BB4F5"/>
<path fill-rule="evenodd" clip-rule="evenodd" d="M17.4199 20.8213L17.3426 20.7068L17.0493 20.2647L16.9773 20.1582C15.9401 20.8561 14.7748 21.342 13.5486 21.5879C12.3224 21.8337 11.0596 21.8346 9.83306 21.5905C8.60653 21.3463 7.44053 20.8621 6.40234 20.1656C5.36416 19.4691 4.47434 18.5741 3.78422 17.5324C3.0941 16.4907 2.61735 15.3227 2.38147 14.096C2.14559 12.8693 2.15525 11.6081 2.40989 10.3851C2.66454 9.16219 3.15912 8.0017 3.86512 6.97063C4.57112 5.93956 5.47454 5.05833 6.52328 4.37777L7.48043 5.99416L9.87998 1.20092L4.71295 0.668335L5.28617 2.44716C2.68224 4.16229 0.867113 6.84031 0.240109 9.8921C-0.386895 12.9439 0.225582 16.1195 1.9428 18.7202C3.66002 21.321 6.34132 23.1339 9.39684 23.7601C12.4524 24.3864 15.6318 23.7746 18.2357 22.0595L17.4199 20.8213Z" fill="#4BB4F5"/>
</svg>
